<svg width="73" height="73" viewBox="0 0 73 73" fill="none" xmlns="http://www.w3.org/2000/svg">
<g clip-path="url(#clip0_1_12997)">
<path d="M30.7256 49.4746H30.2765L27.8027 47.4136V44.8083C33.2271 42.944 37.3794 38.3196 38.5744 32.6206C38.8105 32.6649 39.0494 32.6875 39.2887 32.6875C41.8438 32.6875 43.9225 30.161 43.9225 27.0556C43.9225 24.4506 42.4596 22.253 40.4799 21.6126C40.6078 20.7691 40.7762 19.9595 40.9406 19.1693C41.4641 16.6534 42.0055 14.0519 41.2564 10.4605C40.666 7.62993 39.0269 5.4107 36.5161 4.04238C34.4774 2.93141 32.3249 2.62429 31.2233 2.54031C31.0174 2.52463 30.8121 2.43181 30.6453 2.27897C29.5103 1.23929 27.068 0 21.8805 0C11.3439 0 4.63393 5.39886 3.4511 10.732C2.51693 14.9446 3.29969 19.5607 3.76278 21.6519C1.84211 22.3394 0.436146 24.5016 0.436146 27.0556C0.436146 30.161 2.51479 32.6875 5.06994 32.6875C5.49496 32.6875 5.91086 32.6195 6.31008 32.4867C7.46781 38.2472 11.6425 42.9294 17.1092 44.8083V47.4136L14.6356 49.4746H14.1865C6.36412 49.4746 0 55.8387 0 63.6611V71.0752C0 72.1365 0.863453 73 1.9248 73H42.9873C44.0487 73 44.9121 72.1365 44.9121 71.0752V63.6611C44.9121 55.8387 38.548 49.4746 30.7256 49.4746ZM26.639 49.2278L28.3504 50.6536L25.6363 53.6627L23.9285 50.8941L26.639 49.2278ZM41.7839 27.0556C41.7839 28.9491 40.6413 30.5488 39.2888 30.5488C39.1497 30.5488 39.0119 30.5322 38.8761 30.4996C38.9077 30.0834 38.9238 29.6628 38.9238 29.2386V24.8994C39.08 24.511 39.3566 23.9692 39.6667 23.6047C40.8475 23.8681 41.7839 25.3414 41.7839 27.0556ZM5.53916 11.1951C6.84361 5.31275 14.9321 2.13867 21.8805 2.13867C26.7951 2.13867 28.6371 3.33975 29.201 3.85603C29.7191 4.33067 30.3795 4.62067 31.0605 4.67271C33.1394 4.8314 38.0906 5.75559 39.1629 10.8972C39.8209 14.0525 39.3479 16.3265 38.847 18.7338C38.6338 19.7582 38.4141 20.8138 38.2728 21.9653C38.1452 22.0932 38.0262 22.2302 37.9154 22.3716C37.0867 20.5589 35.9228 17.7361 35.5487 15.4587C35.1063 12.7659 33.2308 10.5786 31.7355 9.21796C30.6266 8.20922 28.853 8.81746 28.5695 10.2802C27.9238 13.6129 24.1961 14.956 18.0732 14.0621C15.3715 13.6678 12.5556 14.5994 10.143 16.6852C8.3786 18.2106 7.07444 20.1423 6.43298 22.0888C6.29668 21.9838 6.15011 21.8816 5.9917 21.7837C5.64025 20.3432 4.59871 15.4361 5.53916 11.1951ZM5.07008 30.5488C3.71758 30.5488 2.57496 28.9491 2.57496 27.0556C2.57496 25.2761 3.58413 23.7562 4.82827 23.5796C5.58236 24.0358 5.8899 24.6395 5.98828 24.8816V29.2384C5.98828 29.5874 5.99926 29.934 6.02079 30.2777C5.76358 30.4297 5.44306 30.5488 5.07008 30.5488ZM8.20152 30.7058C8.19995 30.6825 8.19767 30.6594 8.19468 30.6363C8.14991 30.1764 8.12695 29.71 8.12695 29.2385V24.7041C8.12695 22.6092 9.46733 20.0967 11.5417 18.303C13.4772 16.6297 15.688 15.8751 17.7641 16.1783C22.0493 16.8038 25.3622 16.4267 27.612 15.0572C29.4866 13.9162 30.2662 12.3236 30.5839 11.0691C31.6171 12.0638 33.1098 13.8047 33.4384 15.8054C34.0231 19.3652 36.2328 23.8739 36.7852 24.9626V29.2384C36.7852 29.842 36.7475 30.4369 36.6747 31.0212C36.6741 31.0256 36.6735 31.03 36.673 31.0346C35.7867 38.0855 29.7533 43.5576 22.466 43.5576H22.4459C15.0458 43.5576 8.93865 37.9147 8.20152 30.7058ZM22.4461 45.6963H22.4662C23.56 45.6963 24.6294 45.5889 25.6642 45.3843V47.3167L22.4562 49.2887L19.248 47.3167V45.3843C20.2829 45.5889 21.3521 45.6963 22.4461 45.6963ZM18.2731 49.2278L20.9837 50.8941L19.2759 53.6627L16.5617 50.6536L18.2731 49.2278ZM42.7734 70.8613H2.13867V63.6611C2.13867 57.018 7.54324 51.6133 14.1865 51.6133H14.5472L18.3884 55.8719C18.9992 56.5488 20.0779 56.4361 20.5471 55.6758L22.4561 52.581L24.3652 55.6759C24.8377 56.4418 25.917 56.5441 26.5238 55.8719L30.3649 51.6133H30.7256C37.3689 51.6133 42.7734 57.018 42.7734 63.6611V70.8613Z" fill="white"/>
<path d="M69.6531 0H50.287C48.4415 0 46.94 1.50178 46.94 3.34773V32.6589L39.9311 38.9533C38.9717 39.8152 39.7039 41.404 40.9824 41.2344L46.94 40.4451V43.8456C46.94 45.6916 48.4413 47.1934 50.287 47.1934H69.6531C71.4988 47.1934 73.0003 45.6916 73.0003 43.8456V3.34773C73.0003 1.50178 71.4988 0 69.6531 0ZM70.8616 43.8456C70.8616 44.5123 70.3195 45.0547 69.6531 45.0547H50.287C49.6207 45.0547 49.0786 44.5123 49.0786 43.8456V39.774C49.0786 39.3272 48.8859 38.9022 48.5498 38.6077C48.2142 38.3134 47.7679 38.1783 47.3245 38.2369L43.342 38.7646L48.4098 34.2135C48.8347 33.8315 49.0785 33.285 49.0785 32.7137V3.34773C49.0785 2.68104 49.6206 2.13867 50.2869 2.13867H69.653C70.3194 2.13867 70.8614 2.68104 70.8614 3.34773V43.8456H70.8616Z" fill="white"/>
<path d="M57.8125 8.54004H66.7741C67.3648 8.54004 67.8434 8.06126 67.8434 7.4707C67.8434 6.88014 67.3648 6.40137 66.7741 6.40137H57.8125C57.2218 6.40137 56.7432 6.88014 56.7432 7.4707C56.7432 8.06126 57.2219 8.54004 57.8125 8.54004Z" fill="white"/>
<path d="M53.9424 13.5303H66.7744C67.3651 13.5303 67.8438 13.0515 67.8438 12.4609C67.8438 11.8704 67.3651 11.3916 66.7744 11.3916H53.9424C53.3517 11.3916 52.873 11.8704 52.873 12.4609C52.873 13.0515 53.3517 13.5303 53.9424 13.5303Z" fill="white"/>
<path d="M53.9424 18.5205H66.7744C67.3651 18.5205 67.8438 18.0417 67.8438 17.4512C67.8438 16.8606 67.3651 16.3818 66.7744 16.3818H53.9424C53.3517 16.3818 52.873 16.8606 52.873 17.4512C52.873 18.0417 53.3517 18.5205 53.9424 18.5205Z" fill="white"/>
<path d="M65.6957 21.458H54.6402C52.8533 21.458 51.3994 22.9119 51.3994 24.699V37.9409C51.3994 39.728 52.8533 41.1818 54.6402 41.1818H65.6956C67.4825 41.1818 68.9364 39.728 68.9364 37.9409V24.699C68.9365 22.9119 67.4827 21.458 65.6957 21.458ZM66.7978 37.9409C66.7978 38.5487 66.3034 39.0432 65.6957 39.0432H54.6402C54.0324 39.0432 53.5381 38.5487 53.5381 37.9409V24.699C53.5381 24.0911 54.0325 23.5967 54.6402 23.5967H65.6956C66.3034 23.5967 66.7977 24.0911 66.7977 24.699V37.9409H66.7978Z" fill="white"/>
<path d="M60.168 25.0957C59.5773 25.0957 59.0986 25.5745 59.0986 26.165V32.1314C59.0986 32.7219 59.5773 33.2007 60.168 33.2007C60.7587 33.2007 61.2373 32.7219 61.2373 32.1314V26.165C61.2373 25.5745 60.7587 25.0957 60.168 25.0957Z" fill="white"/>
<path d="M60.168 34.1035C59.5773 34.1035 59.0986 34.5823 59.0986 35.1729V35.7871C59.0986 36.3776 59.5773 36.8564 60.168 36.8564C60.7587 36.8564 61.2373 36.3776 61.2373 35.7871V35.1729C61.2373 34.5823 60.7587 34.1035 60.168 34.1035Z" fill="white"/>
<path d="M22.4561 59.2188C20.6085 59.2188 19.1055 60.7218 19.1055 62.5693C19.1055 64.4169 20.6085 65.9199 22.4561 65.9199C24.3036 65.9199 25.8066 64.4169 25.8066 62.5693C25.8066 60.7218 24.3036 59.2188 22.4561 59.2188ZM22.4561 63.7812C21.7878 63.7812 21.2441 63.2376 21.2441 62.5693C21.2441 61.9011 21.7878 61.3574 22.4561 61.3574C23.1243 61.3574 23.668 61.9011 23.668 62.5693C23.668 63.2376 23.1243 63.7812 22.4561 63.7812Z" fill="white"/>
</g>
<defs>
<clipPath id="clip0_1_12997">
<rect width="73" height="73" fill="white"/>
</clipPath>
</defs>
</svg>
