<svg width="55" height="55" viewBox="0 0 55 55" fill="none" xmlns="http://www.w3.org/2000/svg">
<path d="M32.2824 37.4647C38.4241 37.3125 38.4278 28.309 32.2861 28.1514C26.1426 28.3054 26.1444 37.3015 32.2824 37.4647ZM32.2824 30.9069V30.9032C34.7886 30.9435 34.7923 34.6725 32.2861 34.7165C29.7799 34.6762 29.7781 30.9509 32.2824 30.9069Z" fill="white"/>
<path d="M24.9751 47.1265C25.6699 47.3996 26.4564 47.0696 26.7461 46.3803C28.6546 40.8913 36.2648 40.8931 38.1714 46.3803C38.8516 48.0376 41.3908 47.0128 40.7179 45.3445C37.8579 37.573 27.0596 37.573 24.1996 45.3426C23.9209 46.0485 24.2693 46.8478 24.9751 47.1265Z" fill="white"/>
<path d="M49.4483 11.9709H30.1983L29.5218 10.2475C28.8307 8.45268 27.1018 7.27018 25.1787 7.27935H6.38701C3.11084 7.40035 0.503841 10.0679 0.458008 13.3459V48.9254C0.461674 52.2254 3.13467 54.8984 6.43467 54.902H43.9997C49.8187 54.8965 54.5358 50.1794 54.5413 44.3604V17.062C54.5377 14.2515 52.2588 11.9745 49.4483 11.9709ZM3.20801 48.9254V13.3459C3.23551 11.5602 4.65084 10.1064 6.43467 10.0294H25.1823C27.0395 9.93585 27.3677 12.596 27.9763 13.828L30.4752 20.4867H18.0342C14.9762 20.4757 12.2757 22.4777 11.3975 25.4074L3.70667 50.6304C3.38217 50.1207 3.20984 49.5304 3.20801 48.9254ZM51.7913 44.3604C51.7877 48.6614 48.3007 52.1484 43.9997 52.152C43.3928 52.1154 6.74634 52.218 6.12851 52.1209L14.0283 26.203C14.56 24.4357 16.1898 23.2294 18.0342 23.2367H51.7913V44.3604ZM51.7913 20.4867H33.4122L31.247 14.7209H49.4483C50.7408 14.7227 51.7895 15.7695 51.7913 17.062V20.4867Z" fill="white"/>
</svg>
